# xmcd
#
# Track frame offsets:
#	150
#	12720
#	26618
#	39792
#	54562
#	67410
#	83610
#	97236
#	109251
#	123609
#	136852
#	148879
#	160799
#	173055
#	185563
#	198308
#	211151
#	225219
#
# Disc length: 3165 seconds
#
# Revision: 0
# Processed by: cddbd v1.5PL3 Copyright (c) Steve Scherf et al.
# Submitted via: dBpowerAMP V4.0
#
DISCID=fd0c5b12
DTITLE=Washboard Sam - The Essential [CD1]
DYEAR=2001
DGENRE=General Blues
TTITLE0=Flying Crow Blues
TTITLE1=Mama Don't Allow No. 2
TTITLE2=Don't Tear My Clothes
TTITLE3=I've Been Treated Wrong
TTITLE4=Down In The Alley with The Midnight Ramblers
TTITLE5=I'm A Prowling Grounhog
TTITLE6=I Love All My Women
TTITLE7=It's Too Late
TTITLE8=Back Door
TTITLE9=CCC Blues
TTITLE10=Parchman Farm Blues with Bukka White
TTITLE11=Booker T Blues
TTITLE12=Jersey Cow Blues
TTITLE13=Terraplane Blues with Frank Edwards
TTITLE14=29' Blues with Alfred Fields
TTITLE15=Big Woman
TTITLE16=Down At The Old Village Store
TTITLE17=Bucket's Got A Hole In It
EXTD=william hale
EXTT0=
EXTT1=
EXTT2=
EXTT3=
EXTT4=
EXTT5=
EXTT6=
EXTT7=
EXTT8=
EXTT9=
EXTT10=
EXTT11=
EXTT12=
EXTT13=
EXTT14=
EXTT15=
EXTT16=
EXTT17=
PLAYORDER=
